<svg width="300" height="600" viewBox="0 0 300 600" fill="none" xmlns="http://www.w3.org/2000/svg">
  <defs>
    <linearGradient id="scr" x1="0" y1="0" x2="0" y2="600" gradientUnits="userSpaceOnUse">
      <stop stop-color="#141417"/>
      <stop offset="1" stop-color="#0b0b0e"/>
    </linearGradient>
    <linearGradient id="g" x1="0" y1="0" x2="1" y2="1">
      <stop stop-color="#e7cd97"/>
      <stop offset="1" stop-color="#c9a86a"/>
    </linearGradient>
    <linearGradient id="ph1" x1="0" y1="0" x2="1" y2="1"><stop stop-color="#3a3320"/><stop offset="1" stop-color="#1d1a12"/></linearGradient>
    <linearGradient id="ph2" x1="0" y1="0" x2="1" y2="1"><stop stop-color="#2a2f3a"/><stop offset="1" stop-color="#16191f"/></linearGradient>
    <linearGradient id="ph3" x1="0" y1="0" x2="1" y2="1"><stop stop-color="#3a2a2f"/><stop offset="1" stop-color="#1f1619"/></linearGradient>
  </defs>
  <rect width="300" height="600" rx="0" fill="url(#scr)"/>
  <!-- status bar -->
  <text x="22" y="34" fill="#ededf0" font-family="sans-serif" font-size="13" font-weight="600">9:41</text>
  <rect x="244" y="24" width="34" height="12" rx="3" stroke="#ededf0" stroke-opacity="0.5"/>
  <!-- header -->
  <text x="22" y="78" fill="#ededf0" font-family="sans-serif" font-size="26" font-weight="800">pixory</text>
  <circle cx="270" cy="70" r="16" fill="#ffffff" fill-opacity="0.06"/>
  <circle cx="270" cy="70" r="6" stroke="url(#g)" stroke-width="2"/>
  <!-- AI sort banner -->
  <rect x="22" y="100" width="256" height="56" rx="14" fill="#ffffff" fill-opacity="0.04" stroke="#c9a86a" stroke-opacity="0.3"/>
  <circle cx="48" cy="128" r="14" fill="url(#g)" fill-opacity="0.15"/>
  <path d="M44 128l3 3 6-6" stroke="url(#g)" stroke-width="2" stroke-linecap="round" stroke-linejoin="round"/>
  <text x="72" y="124" fill="#ededf0" font-family="sans-serif" font-size="12" font-weight="700">AI 자동 정리 완료</text>
  <text x="72" y="140" fill="#8b909c" font-family="sans-serif" font-size="10">중복 128장 · 흐린 사진 34장 정리</text>
  <!-- section title -->
  <text x="22" y="190" fill="#c9a86a" font-family="sans-serif" font-size="11" font-weight="700" letter-spacing="1">RECENTLY ORGANIZED</text>
  <!-- photo grid -->
  <g>
    <rect x="22" y="202" width="78" height="78" rx="10" fill="url(#ph1)"/>
    <rect x="111" y="202" width="78" height="78" rx="10" fill="url(#ph2)"/>
    <rect x="200" y="202" width="78" height="78" rx="10" fill="url(#ph3)"/>
    <rect x="22" y="290" width="78" height="78" rx="10" fill="url(#ph2)"/>
    <rect x="111" y="290" width="78" height="78" rx="10" fill="url(#ph3)"/>
    <rect x="200" y="290" width="78" height="78" rx="10" fill="url(#ph1)"/>
    <rect x="22" y="378" width="78" height="78" rx="10" fill="url(#ph3)"/>
    <rect x="111" y="378" width="78" height="78" rx="10" fill="url(#ph1)"/>
    <rect x="200" y="378" width="78" height="78" rx="10" fill="url(#ph2)"/>
  </g>
  <!-- decorative photo icons -->
  <circle cx="61" cy="232" r="9" stroke="#e7cd97" stroke-opacity="0.5" stroke-width="2"/>
  <path d="M30 270l16-14 12 10 10-8 12 12" stroke="#000" stroke-opacity="0.25" stroke-width="3" fill="none"/>
  <!-- bottom nav -->
  <rect x="0" y="540" width="300" height="60" fill="#0e0e11"/>
  <rect x="0" y="540" width="300" height="1" fill="#ffffff" fill-opacity="0.08"/>
  <circle cx="60" cy="570" r="4" fill="url(#g)"/>
  <rect x="50" y="582" width="20" height="3" rx="1.5" fill="url(#g)"/>
  <circle cx="150" cy="570" r="4" fill="#5a5e66"/>
  <circle cx="240" cy="570" r="4" fill="#5a5e66"/>
</svg>
